<?xml version='1.0' encoding='utf-8'?>
<svg xmlns="http://www.w3.org/2000/svg" version="1.1" viewBox="0.00 0.00 1023.00 341.00"><defs><mask id="m1"><rect x="0.0" y="0.0" width="1023.0" height="341.0" fill="#000" /><rect x="0.0" y="0.0" width="0" height="232.67" fill="#fff"></rect></mask><mask id="m2"><rect x="0.0" y="0.0" width="1023.0" height="341.0" fill="#000" /><rect x="-63.1" y="-88.6" width="0" height="502.24" fill="#fff"></rect></mask><mask id="m3"><rect x="0.0" y="0.0" width="1023.0" height="341.0" fill="#000" /><rect x="164.58" y="171.53" width="0" height="59.22" fill="#fff"></rect></mask><mask id="m4"><rect x="0.0" y="0.0" width="1023.0" height="341.0" fill="#000" /><rect x="-36.3" y="0.0" width="0" height="648.03" fill="#fff"></rect></mask><mask id="m5"><rect x="0.0" y="0.0" width="1023.0" height="341.0" fill="#000" /><rect x="-81.6" y="-72.9" width="0" height="872.78" fill="#fff"></rect></mask><mask id="m6"><rect x="0.0" y="0.0" width="1023.0" height="341.0" fill="#000" /><rect x="-3.57" y="-3.3" width="0" height="6.6" fill="#fff"></rect></mask><mask id="m7"><rect x="0.0" y="0.0" width="1023.0" height="341.0" fill="#000" /><rect x="660.69" y="101.1" width="0" height="15.969999999999999" fill="#fff"></rect></mask></defs><style>.sig-fill{fill:#fff;stroke:none}</style><g mask="url(#m1)" data-order="1"><path fill="#ffffff" d="M 163.98 232.67   Q 164.01 232.61 164.08 232.33   A 0.11 0.11 0.0 0 0 163.87 232.27   Q 163.76 232.64 163.78 232.67   A 0.11 0.11 0.0 0 0 163.98 232.67   Z" /></g><g mask="url(#m2)" data-order="2"><path fill="#ffffff" d="M 338.88 245.71   C 331.42 260.33 328.46 266.77 323.10 275.34   C 320.34 279.77 309.39 280.26 307.07 275.25   A 0.62 0.62 0.0 0 0 306.31 274.92   Q 306.17 274.96 305.72 275.25   Q 305.38 275.46 305.03 275.46   Q 301.12 275.53 301.50 271.02   A 0.27 0.27 0.0 0 0 301.04 270.80   C 299.70 272.12 298.61 273.07 296.79 272.69   Q 294.29 272.16 293.78 269.18   A 0.27 0.27 0.0 0 0 293.27 269.12   C 292.13 271.65 289.09 274.10 286.58 271.66   Q 285.35 270.47 286.04 268.00   A 0.33 0.33 0.0 0 0 285.63 267.60   Q 285.55 267.62 284.73 268.29   Q 284.23 268.70 283.85 268.84   C 278.73 270.68 278.14 265.69 277.88 262.08   A 0.19 0.19 0.0 0 0 277.52 262.00   Q 275.61 265.41 273.75 268.99   Q 272.59 271.22 270.84 272.28   C 268.11 273.92 265.24 272.24 264.38 269.42   Q 263.93 267.96 264.69 265.62   C 266.31 260.71 267.16 252.37 268.77 246.72   Q 273.54 230.05 280.09 212.85   Q 284.44 201.43 306.04 145.49   C 308.48 139.19 316.55 111.59 307.35 108.44   C 301.82 106.54 296.22 110.40 292.25 114.01   Q 269.54 134.64 253.70 160.96   C 245.35 174.83 237.70 190.31 228.25 205.88   A 2.91 2.90 29.2 0 1 224.44 206.95   L 224.26 206.86   A 2.80 2.79 -63.1 0 1 223.05 203.13   C 226.34 196.53 228.46 190.11 232.17 183.61   Q 245.15 160.91 253.00 129.27   C 254.40 123.66 255.89 114.71 252.27 110.65   Q 250.39 108.55 246.27 108.23   C 236.41 107.44 228.20 113.89 221.55 120.55   C 211.20 130.92 202.95 139.94 195.85 152.18   A 3.02 2.99 -27.0 0 0 195.46 153.36   Q 193.20 173.86 184.46 196.49   Q 174.28 222.86 169.58 234.36   C 165.78 243.69 159.33 255.42 156.04 264.02   Q 153.11 271.65 150.38 279.90   Q 149.79 281.68 148.03 281.89   C 143.36 282.43 144.52 276.69 144.88 273.51   C 146.39 260.00 152.39 245.83 157.21 233.41   C 162.71 219.20 167.34 204.40 172.43 189.94   Q 179.54 169.77 189.28 151.53   A 2.76 2.62 -28.8 0 0 189.59 150.56   Q 190.96 139.56 187.28 125.54   Q 182.99 109.21 166.49 107.73   Q 157.26 106.90 145.49 108.69   Q 136.41 110.08 131.07 114.75   Q 122.55 122.21 117.38 131.59   A 1.09 1.06 -39.5 0 0 117.29 132.42   L 117.67 133.67   A 1.71 1.68 -43.1 0 1 117.62 134.84   Q 117.28 135.69 115.91 137.77   C 114.44 140.01 111.48 140.04 110.44 137.59   C 109.35 135.02 111.89 129.25 113.43 126.69   Q 119.42 116.80 127.55 110.01   Q 133.85 104.75 143.15 103.11   Q 156.36 100.78 167.72 101.98   C 189.16 104.25 194.39 122.01 195.70 140.38   A 0.26 0.26 0.0 0 0 196.17 140.52   Q 204.84 128.64 218.18 115.68   C 224.56 109.48 231.75 104.04 240.16 102.69   C 258.66 99.70 262.64 112.97 259.30 128.05   Q 256.87 138.99 253.00 150.61   A 0.15 0.14 70.9 0 0 253.26 150.74   Q 267.59 128.70 286.79 111.04   C 292.65 105.65 299.19 100.86 307.37 102.38   C 326.74 105.97 313.34 142.95 309.21 153.63   Q 286.57 212.24 285.54 215.05   C 279.28 232.11 274.95 243.96 272.11 259.04   A 0.20 0.20 0.0 0 0 272.48 259.18   C 276.72 251.83 279.78 245.81 284.28 240.95   Q 285.58 239.55 287.31 239.84   C 292.53 240.71 290.02 247.62 288.56 250.81   Q 286.54 255.20 284.79 259.19   A 0.12 0.12 0.0 0 0 285.00 259.31   C 286.60 257.20 289.14 251.49 292.96 253.97   A 0.55 0.53 -88.6 0 1 293.16 254.19   L 294.13 256.19   A 0.50 0.49 -23.7 0 0 294.75 256.43   Q 298.45 255.06 300.09 258.79   C 300.46 259.63 300.22 260.64 300.37 261.29   A 0.42 0.41 -22.9 0 0 301.00 261.54   C 301.54 261.19 302.32 260.34 303.01 260.16   Q 307.03 259.10 307.63 263.69   A 0.32 0.32 0.0 0 0 308.09 263.93   Q 311.47 262.23 313.09 265.66   Q 314.40 268.42 312.91 271.76   A 0.78 0.78 0.0 0 0 313.62 272.86   L 316.65 272.86   A 1.83 1.83 0.0 0 0 318.19 272.02   C 325.58 260.38 333.48 242.33 341.87 227.56   Q 349.58 213.98 357.24 198.90   A 0.46 0.46 0.0 0 0 356.85 198.23   Q 339.58 197.35 322.11 193.30   A 3.00 2.99 11.5 0 1 319.83 189.86   L 319.86 189.70   A 2.74 2.74 0.0 0 1 323.18 187.51   Q 341.32 191.76 359.68 192.50   A 0.77 0.76 13.0 0 0 360.41 192.05   Q 364.67 182.66 366.21 177.95   C 369.54 167.76 371.90 159.57 376.44 151.57   Q 379.00 147.05 380.24 143.75   C 381.45 140.48 387.03 142.11 385.45 146.70   Q 377.83 168.90 367.56 192.47   A 0.44 0.44 0.0 0 0 367.96 193.09   L 410.90 193.09   A 2.75 2.74 90.0 0 1 413.64 195.84   L 413.64 196.09   A 2.89 2.89 0.0 0 1 410.75 198.98   L 365.04 198.98   A 0.12 0.12 0.0 0 0 364.93 199.05   Q 350.32 231.66 339.31 262.79   Q 337.19 268.76 336.54 271.70   A 0.64 0.63 12.5 0 0 337.02 272.45   C 342.29 273.58 348.59 263.14 350.70 259.20   Q 355.76 249.77 361.35 241.27   C 363.11 238.60 367.27 238.01 368.79 241.44   Q 369.40 242.84 368.40 245.93   Q 363.47 261.20 360.62 272.37   Q 359.89 275.22 360.27 277.63   A 2.95 2.95 0.0 0 0 362.43 280.02   Q 364.70 280.63 367.50 280.19   Q 379.76 278.29 394.22 271.45   Q 399.31 269.04 403.40 265.82   A 2.94 2.93 -40.7 0 1 407.44 266.12   L 407.55 266.24   A 2.70 2.69 -42.1 0 1 407.35 270.05   Q 404.75 272.38 402.28 273.78   Q 385.77 283.17 367.54 286.12   Q 364.48 286.61 360.33 285.45   C 353.27 283.46 353.62 275.23 355.28 269.27   Q 356.94 263.33 358.64 257.65   A 0.19 0.18 -71.6 0 0 358.53 257.42   L 358.52 257.42   A 0.11 0.11 0.0 0 0 358.38 257.47   C 354.15 265.40 349.81 273.39 342.30 277.50   C 336.76 280.53 328.66 276.99 331.05 269.35   Q 334.33 258.85 334.55 258.33   Q 337.26 251.91 339.17 245.83   A 0.16 0.16 0.0 0 0 338.88 245.71   Z" /></g><g mask="url(#m3)" data-order="3"><path fill="#ffffff" d="M 164.72 230.70   Q 164.86 230.75 176.68 200.25   Q 179.66 192.58 181.86 186.07   Q 186.68 171.82 186.27 171.67   Q 185.87 171.53 180.37 185.53   Q 177.86 191.92 175.19 199.71   Q 164.58 230.65 164.72 230.70   Z" /></g><g mask="url(#m4)" data-order="4"><path fill="#ffffff" d="   M 637.88 107.16   C 638.54 104.01 640.10 101.94 643.52 102.54   C 645.97 102.96 648.08 103.55 648.20 106.07   A 2.74 2.69 -36.3 0 1 648.03 107.12   Q 647.37 108.89 645.73 110.71   C 643.90 112.76 642.28 112.94 639.83 111.34   Q 637.35 109.72 637.88 107.16   Z" /></g><g mask="url(#m5)" data-order="5"><path fill="#ffffff" d="   M 569.72 241.97   Q 567.07 244.03 557.41 248.94   C 551.51 251.93 548.62 253.92 544.56 258.67   C 542.32 261.28 535.28 269.41 532.51 263.09   A 0.89 0.89 0.0 0 0 531.73 262.57   Q 528.54 262.48 528.09 259.16   A 0.41 0.41 0.0 0 0 527.43 258.89   C 520.67 264.06 510.00 264.43 504.44 257.76   C 499.49 251.84 501.46 242.31 503.36 235.12   Q 510.09 209.73 518.10 188.86   Q 524.20 172.94 529.85 158.58   C 532.84 150.99 537.15 143.21 539.34 134.90   A 0.92 0.91 -81.6 0 0 538.49 133.75   Q 526.44 133.33 512.25 133.24   Q 484.13 133.05 455.59 132.49   C 444.32 132.27 436.27 134.91 426.56 131.44   A 3.16 3.15 -72.9 0 1 424.57 127.67   L 424.62 127.46   A 2.63 2.63 0.0 0 1 428.14 125.68   Q 432.87 127.56 437.23 127.42   C 443.01 127.25 449.49 126.48 455.59 126.61   Q 475.15 127.05 508.66 127.31   C 535.21 127.52 569.34 128.83 598.00 129.25   Q 622.13 129.60 630.00 129.26   Q 646.41 128.54 659.14 128.28   C 662.56 128.21 666.75 129.11 670.17 129.04   A 1.65 1.58 23.2 0 0 671.15 128.67   Q 673.55 126.65 675.63 128.98   A 1.84 1.82 -71.2 0 1 676.07 129.89   C 677.26 136.79 666.12 134.69 662.46 134.37   Q 659.62 134.12 656.55 134.19   C 643.68 134.49 626.80 135.45 611.16 135.29   Q 581.63 134.99 546.35 133.93   A 0.74 0.73 7.7 0 0 545.61 134.49   Q 543.60 142.24 540.32 149.32   C 535.55 159.65 531.85 169.51 527.78 179.81   Q 518.07 204.38 508.89 236.74   Q 507.13 242.92 507.35 249.51   C 507.56 255.99 513.97 257.62 519.44 256.48   Q 521.83 255.98 525.40 252.99   C 527.62 251.11 533.79 245.18 536.57 248.91   Q 537.84 250.62 536.43 252.70   A 0.56 0.56 0.0 0 0 536.70 253.54   Q 538.10 254.05 538.70 255.57   A 0.40 0.40 0.0 0 0 539.37 255.68   C 542.91 251.64 545.92 248.33 550.63 245.87   Q 558.59 241.70 564.30 238.62   A 7.33 7.00 -77.9 0 0 565.52 237.79   C 568.85 235.02 573.82 230.50 578.02 233.43   A 0.67 0.66 -50.0 0 0 578.88 233.35   C 582.10 230.02 590.35 223.24 595.26 225.12   Q 597.72 226.06 597.58 229.10   A 0.51 0.51 0.0 0 0 598.13 229.63   Q 601.03 229.43 603.10 231.00   A 0.80 0.78 -38.8 0 0 603.92 231.08   L 616.94 224.75   A 2.42 2.42 0.0 0 1 618.31 224.52   Q 622.88 225.12 625.50 226.95   A 2.85 2.84 -25.8 0 0 626.94 227.45   C 644.97 228.63 663.86 227.48 684.50 227.32   Q 709.13 227.14 728.18 225.10   C 756.79 222.04 774.28 219.60 797.08 219.56   A 2.79 2.79 0.0 0 1 799.88 222.37   L 799.88 222.53   A 2.84 2.84 0.0 0 1 797.07 225.35   C 773.17 225.60 746.77 229.14 724.44 231.42   C 715.16 232.36 701.63 233.01 689.84 233.12   Q 671.70 233.30 642.01 233.94   Q 637.93 234.03 625.10 233.18   A 3.46 3.34 61.2 0 1 623.58 232.71   L 622.54 232.08   A 0.64 0.64 0.0 0 0 621.68 232.28   Q 620.31 234.39 615.86 241.55   C 609.74 251.40 603.50 259.71 595.87 271.07   C 587.62 283.37 581.09 297.16 573.15 309.84   A 12.33 12.20 71.3 0 0 572.03 312.14   C 570.38 316.62 567.75 322.46 564.03 325.61   A 2.93 2.70 -49.0 0 1 560.74 325.97   Q 558.08 324.35 559.77 321.28   Q 563.37 314.79 565.93 310.47   C 568.12 306.77 569.06 303.14 571.14 299.55   C 576.29 290.63 583.41 280.03 588.91 269.95   Q 595.04 258.72 597.41 255.37   Q 607.65 240.94 612.23 234.14   A 0.24 0.24 0.0 0 0 611.94 233.79   C 607.69 235.75 604.45 238.90 599.64 235.74   A 1.48 1.47 -44.1 0 0 598.06 235.72   C 592.85 238.94 588.30 244.87 584.95 248.57   A 3.07 3.07 0.0 0 1 580.60 248.78   L 580.53 248.72   A 2.82 2.82 0.0 0 1 580.42 244.66   Q 585.73 239.26 590.02 232.53   A 0.31 0.31 0.0 0 0 589.58 232.11   Q 582.81 237.04 577.23 243.35   A 3.88 3.86 -9.8 0 0 576.67 244.14   Q 572.75 251.47 568.54 256.54   Q 549.86 278.96 525.28 307.42   C 519.48 314.13 514.67 321.88 508.28 327.90   A 14.06 13.84 -4.2 0 0 506.50 329.93   C 504.99 332.01 503.15 334.33 501.06 336.18   C 498.93 338.07 496.18 336.22 496.27 333.58   C 496.36 330.79 499.89 327.44 502.72 324.81   A 7.08 6.99 -6.0 0 0 503.92 323.35   C 508.62 315.72 512.18 309.34 517.43 302.21   C 529.07 286.42 541.22 271.25 552.46 259.37   Q 558.17 253.33 561.07 250.66   Q 569.67 242.74 570.01 242.25   A 0.20 0.20 0.0 0 0 569.72 241.97   Z" /></g><g mask="url(#m6)" data-order="6"><ellipse fill="#ffffff" cx="0.00" cy="0.00" transform="translate(372.14,222.94) rotate(-44.9)" rx="3.57" ry="3.30" /></g><g mask="url(#m7)" data-order="7"><path fill="#ffffff" d="   M 661.40 106.25   C 660.69 102.11 664.41 101.10 667.76 101.35   C 675.92 101.95 670.32 117.07 663.58 109.30   Q 661.51 106.92 661.40 106.25   Z" /></g></svg>
